<?xml version="1.0" encoding="UTF-8"?>
<svg xmlns="http://www.w3.org/2000/svg" height="506" width="900">
	<polygon points="30 0,15 26,-15 26,-30 0,-15 -26,15 -26" fill="rgb(24,194,239)" />
	<polygon points="30 52,15 78,-15 78,-30 52,-15 26,15 26" fill="rgb(26,184,246)" />
	<polygon points="30 104,15 130,-15 130,-30 104,-15 78,15 78" fill="rgb(36,199,235)" />
	<polygon points="30 156,15 182,-15 182,-30 156,-15 130,15 130" fill="rgb(66,220,221)" />
	<polygon points="30 208,15 234,-15 234,-30 208,-15 182,15 182" fill="rgb(78,215,211)" />
	<polygon points="30 260,15 286,-15 286,-30 260,-15 234,15 234" fill="rgb(201,146,145)" />
	<polygon points="30 312,15 338,-15 338,-30 312,-15 286,15 286" fill="rgb(232,135,125)" />
	<polygon points="30 364,15 390,-15 390,-30 364,-15 338,15 338" fill="rgb(249,111,122)" />
	<polygon points="30 416,15 442,-15 442,-30 416,-15 390,15 390" fill="rgb(182,97,123)" />
	<polygon points="30 468,15 494,-15 494,-30 468,-15 442,15 442" fill="rgb(117,87,133)" />
	<polygon points="30 520,15 546,-15 546,-30 520,-15 494,15 494" fill="rgb(37,100,131)" />
	<polygon points="75 -26,60 0,30 0,15 -26,30 -52,60 -52" fill="rgb(24,188,245)" />
	<polygon points="75 26,60 52,30 52,15 26,30 0,60 0" fill="rgb(26,188,244)" />
	<polygon points="75 78,60 104,30 104,15 78,30 52,60 52" fill="rgb(27,180,250)" />
	<polygon points="75 130,60 156,30 156,15 130,30 104,60 104" fill="rgb(30,180,248)" />
	<polygon points="75 182,60 208,30 208,15 182,30 156,60 156" fill="rgb(53,207,228)" />
	<polygon points="75 234,60 260,30 260,15 234,30 208,60 208" fill="rgb(101,208,197)" />
	<polygon points="75 286,60 312,30 312,15 286,30 260,60 260" fill="rgb(227,148,126)" />
	<polygon points="75 338,60 364,30 364,15 338,30 312,60 312" fill="rgb(212,107,122)" />
	<polygon points="75 390,60 416,30 416,15 390,30 364,60 364" fill="rgb(185,97,125)" />
	<polygon points="75 442,60 468,30 468,15 442,30 416,60 416" fill="rgb(67,96,132)" />
	<polygon points="75 494,60 520,30 520,15 494,30 468,60 468" fill="rgb(33,101,133)" />
	<polygon points="120 0,105 26,75 26,60 0,75 -26,105 -26" fill="rgb(27,179,250)" />
	<polygon points="120 52,105 78,75 78,60 52,75 26,105 26" fill="rgb(27,175,252)" />
	<polygon points="120 104,105 130,75 130,60 104,75 78,105 78" fill="rgb(27,176,252)" />
	<polygon points="120 156,105 182,75 182,60 156,75 130,105 130" fill="rgb(36,185,242)" />
	<polygon points="120 208,105 234,75 234,60 208,75 182,105 182" fill="rgb(121,183,188)" />
	<polygon points="120 260,105 286,75 286,60 260,75 234,105 234" fill="rgb(213,177,129)" />
	<polygon points="120 312,105 338,75 338,60 312,75 286,105 286" fill="rgb(247,113,115)" />
	<polygon points="120 364,105 390,75 390,60 364,75 338,105 338" fill="rgb(135,95,126)" />
	<polygon points="120 416,105 442,75 442,60 416,75 390,105 390" fill="rgb(54,97,132)" />
	<polygon points="120 468,105 494,75 494,60 468,75 442,105 442" fill="rgb(27,102,132)" />
	<polygon points="120 520,105 546,75 546,60 520,75 494,105 494" fill="rgb(26,103,133)" />
	<polygon points="165 -26,150 0,120 0,105 -26,120 -52,150 -52" fill="rgb(28,174,253)" />
	<polygon points="165 26,150 52,120 52,105 26,120 0,150 0" fill="rgb(27,174,252)" />
	<polygon points="165 78,150 104,120 104,105 78,120 52,150 52" fill="rgb(45,183,238)" />
	<polygon points="165 130,150 156,120 156,105 130,120 104,150 104" fill="rgb(73,180,218)" />
	<polygon points="165 182,150 208,120 208,105 182,120 156,150 156" fill="rgb(64,198,211)" />
	<polygon points="165 234,150 260,120 260,105 234,120 208,150 208" fill="rgb(181,149,152)" />
	<polygon points="165 286,150 312,120 312,105 286,120 260,150 260" fill="rgb(247,117,118)" />
	<polygon points="165 338,150 364,120 364,105 338,120 312,150 312" fill="rgb(187,97,122)" />
	<polygon points="165 390,150 416,120 416,105 390,120 364,150 364" fill="rgb(93,91,133)" />
	<polygon points="165 442,150 468,120 468,105 442,120 416,150 416" fill="rgb(33,101,132)" />
	<polygon points="165 494,150 520,120 520,105 494,120 468,150 468" fill="rgb(26,103,133)" />
	<polygon points="210 0,195 26,165 26,150 0,165 -26,195 -26" fill="rgb(28,174,253)" />
	<polygon points="210 52,195 78,165 78,150 52,165 26,195 26" fill="rgb(33,182,246)" />
	<polygon points="210 104,195 130,165 130,150 104,165 78,195 78" fill="rgb(48,179,235)" />
	<polygon points="210 156,195 182,165 182,150 156,165 130,195 130" fill="rgb(106,200,186)" />
	<polygon points="210 208,195 234,165 234,150 208,165 182,195 182" fill="rgb(143,136,148)" />
	<polygon points="210 260,195 286,165 286,150 260,165 234,195 234" fill="rgb(190,104,124)" />
	<polygon points="210 312,195 338,165 338,150 312,165 286,195 286" fill="rgb(123,95,129)" />
	<polygon points="210 364,195 390,165 390,150 364,165 338,195 338" fill="rgb(103,89,132)" />
	<polygon points="210 416,195 442,165 442,150 416,165 390,195 390" fill="rgb(44,99,133)" />
	<polygon points="210 468,195 494,165 494,150 468,165 442,195 442" fill="rgb(27,103,133)" />
	<polygon points="210 520,195 546,165 546,150 520,165 494,195 494" fill="rgb(26,103,133)" />
	<polygon points="255 -26,240 0,210 0,195 -26,210 -52,240 -52" fill="rgb(32,187,244)" />
	<polygon points="255 26,240 52,210 52,195 26,210 0,240 0" fill="rgb(43,185,241)" />
	<polygon points="255 78,240 104,210 104,195 78,210 52,240 52" fill="rgb(68,215,213)" />
	<polygon points="255 130,240 156,210 156,195 130,210 104,240 104" fill="rgb(84,198,205)" />
	<polygon points="255 182,240 208,210 208,195 182,210 156,240 156" fill="rgb(140,203,172)" />
	<polygon points="255 234,240 260,210 260,195 234,210 208,240 208" fill="rgb(212,143,117)" />
	<polygon points="255 286,240 312,210 312,195 286,210 260,240 260" fill="rgb(157,92,126)" />
	<polygon points="255 338,240 364,210 364,195 338,210 312,240 312" fill="rgb(63,97,133)" />
	<polygon points="255 390,240 416,210 416,195 390,210 364,240 364" fill="rgb(35,100,132)" />
	<polygon points="255 442,240 468,210 468,195 442,210 416,240 416" fill="rgb(26,103,133)" />
	<polygon points="255 494,240 520,210 520,195 494,210 468,240 468" fill="rgb(26,103,133)" />
	<polygon points="300 0,285 26,255 26,240 0,255 -26,285 -26" fill="rgb(35,198,234)" />
	<polygon points="300 52,285 78,255 78,240 52,255 26,285 26" fill="rgb(96,207,202)" />
	<polygon points="300 104,285 130,255 130,240 104,255 78,285 78" fill="rgb(94,204,198)" />
	<polygon points="300 156,285 182,255 182,240 156,255 130,285 130" fill="rgb(185,164,147)" />
	<polygon points="300 208,285 234,255 234,240 208,255 182,285 182" fill="rgb(214,142,115)" />
	<polygon points="300 260,285 286,255 286,240 260,255 234,285 234" fill="rgb(141,94,127)" />
	<polygon points="300 312,285 338,255 338,240 312,255 286,285 286" fill="rgb(110,92,130)" />
	<polygon points="300 364,285 390,255 390,240 364,255 338,285 338" fill="rgb(27,103,133)" />
	<polygon points="300 416,285 442,255 442,240 416,255 390,285 390" fill="rgb(26,103,133)" />
	<polygon points="300 468,285 494,255 494,240 468,255 442,285 442" fill="rgb(26,103,133)" />
	<polygon points="300 520,285 546,255 546,240 520,255 494,285 494" fill="rgb(26,102,133)" />
	<polygon points="345 -26,330 0,300 0,285 -26,300 -52,330 -52" fill="rgb(38,208,225)" />
	<polygon points="345 26,330 52,300 52,285 26,300 0,330 0" fill="rgb(45,208,223)" />
	<polygon points="345 78,330 104,300 104,285 78,300 52,330 52" fill="rgb(153,172,164)" />
	<polygon points="345 130,330 156,300 156,285 130,300 104,330 104" fill="rgb(209,157,135)" />
	<polygon points="345 182,330 208,300 208,285 182,300 156,330 156" fill="rgb(199,109,122)" />
	<polygon points="345 234,330 260,300 260,285 234,300 208,330 208" fill="rgb(78,97,131)" />
	<polygon points="345 286,330 312,300 312,285 286,300 260,330 260" fill="rgb(70,96,132)" />
	<polygon points="345 338,330 364,300 364,285 338,300 312,330 312" fill="rgb(41,99,133)" />
	<polygon points="345 390,330 416,300 416,285 390,300 364,330 364" fill="rgb(26,103,133)" />
	<polygon points="345 442,330 468,300 468,285 442,300 416,330 416" fill="rgb(26,103,133)" />
	<polygon points="345 494,330 520,300 520,285 494,300 468,330 468" fill="rgb(26,103,133)" />
	<polygon points="390 0,375 26,345 26,330 0,345 -26,375 -26" fill="rgb(142,206,161)" />
	<polygon points="390 52,375 78,345 78,330 52,345 26,375 26" fill="rgb(160,189,165)" />
	<polygon points="390 104,375 130,345 130,330 104,345 78,375 78" fill="rgb(216,128,120)" />
	<polygon points="390 156,375 182,345 182,330 156,345 130,375 130" fill="rgb(223,108,117)" />
	<polygon points="390 208,375 234,345 234,330 208,345 182,375 182" fill="rgb(114,93,129)" />
	<polygon points="390 260,375 286,345 286,330 260,345 234,375 234" fill="rgb(59,97,133)" />
	<polygon points="390 312,375 338,345 338,330 312,345 286,375 286" fill="rgb(26,103,133)" />
	<polygon points="390 364,375 390,345 390,330 364,345 338,375 338" fill="rgb(26,103,133)" />
	<polygon points="390 416,375 442,345 442,330 416,345 390,375 390" fill="rgb(26,103,133)" />
	<polygon points="390 468,375 494,345 494,330 468,345 442,375 442" fill="rgb(26,102,133)" />
	<polygon points="390 520,375 546,345 546,330 520,345 494,375 494" fill="rgb(27,102,133)" />
	<polygon points="435 -26,420 0,390 0,375 -26,390 -52,420 -52" fill="rgb(244,191,96)" />
	<polygon points="435 26,420 52,390 52,375 26,390 0,420 0" fill="rgb(236,192,104)" />
	<polygon points="435 78,420 104,390 104,375 78,390 52,420 52" fill="rgb(210,150,120)" />
	<polygon points="435 130,420 156,390 156,375 130,390 104,420 104" fill="rgb(187,101,123)" />
	<polygon points="435 182,420 208,390 208,375 182,390 156,420 156" fill="rgb(153,98,126)" />
	<polygon points="435 234,420 260,390 260,375 234,390 208,420 208" fill="rgb(50,100,132)" />
	<polygon points="435 286,420 312,390 312,375 286,390 260,420 260" fill="rgb(32,103,133)" />
	<polygon points="435 338,420 364,390 364,375 338,390 312,420 312" fill="rgb(26,103,133)" />
	<polygon points="435 390,420 416,390 416,375 390,390 364,420 364" fill="rgb(26,103,133)" />
	<polygon points="435 442,420 468,390 468,375 442,390 416,420 416" fill="rgb(26,103,133)" />
	<polygon points="435 494,420 520,390 520,375 494,390 468,420 468" fill="rgb(26,102,133)" />
	<polygon points="480 0,465 26,435 26,420 0,435 -26,465 -26" fill="rgb(244,189,97)" />
	<polygon points="480 52,465 78,435 78,420 52,435 26,465 26" fill="rgb(221,147,111)" />
	<polygon points="480 104,465 130,435 130,420 104,435 78,465 78" fill="rgb(189,121,118)" />
	<polygon points="480 156,465 182,435 182,420 156,435 130,465 130" fill="rgb(172,94,125)" />
	<polygon points="480 208,465 234,435 234,420 208,435 182,465 182" fill="rgb(65,95,133)" />
	<polygon points="480 260,465 286,435 286,420 260,435 234,465 234" fill="rgb(27,103,133)" />
	<polygon points="480 312,465 338,435 338,420 312,435 286,465 286" fill="rgb(26,103,133)" />
	<polygon points="480 364,465 390,435 390,420 364,435 338,465 338" fill="rgb(26,103,133)" />
	<polygon points="480 416,465 442,435 442,420 416,435 390,465 390" fill="rgb(26,103,133)" />
	<polygon points="480 468,465 494,435 494,420 468,435 442,465 442" fill="rgb(26,102,133)" />
	<polygon points="480 520,465 546,435 546,420 520,435 494,465 494" fill="rgb(26,103,133)" />
	<polygon points="525 -26,510 0,480 0,465 -26,480 -52,510 -52" fill="rgb(245,186,98)" />
	<polygon points="525 26,510 52,480 52,465 26,480 0,510 0" fill="rgb(227,132,115)" />
	<polygon points="525 78,510 104,480 104,465 78,480 52,510 52" fill="rgb(199,114,119)" />
	<polygon points="525 130,510 156,480 156,465 130,480 104,510 104" fill="rgb(175,99,125)" />
	<polygon points="525 182,510 208,480 208,465 182,480 156,510 156" fill="rgb(108,88,133)" />
	<polygon points="525 234,510 260,480 260,465 234,480 208,510 208" fill="rgb(39,100,133)" />
	<polygon points="525 286,510 312,480 312,465 286,480 260,510 260" fill="rgb(26,103,133)" />
	<polygon points="525 338,510 364,480 364,465 338,480 312,510 312" fill="rgb(26,103,133)" />
	<polygon points="525 390,510 416,480 416,465 390,480 364,510 364" fill="rgb(29,102,132)" />
	<polygon points="525 442,510 468,480 468,465 442,480 416,510 416" fill="rgb(26,103,133)" />
	<polygon points="525 494,510 520,480 520,465 494,480 468,510 468" fill="rgb(27,103,133)" />
	<polygon points="570 0,555 26,525 26,510 0,525 -26,555 -26" fill="rgb(245,119,115)" />
	<polygon points="570 52,555 78,525 78,510 52,525 26,555 26" fill="rgb(168,95,129)" />
	<polygon points="570 104,555 130,525 130,510 104,525 78,555 78" fill="rgb(181,96,126)" />
	<polygon points="570 156,555 182,525 182,510 156,525 130,555 130" fill="rgb(137,90,129)" />
	<polygon points="570 208,555 234,525 234,510 208,525 182,555 182" fill="rgb(57,97,132)" />
	<polygon points="570 260,555 286,525 286,510 260,525 234,555 234" fill="rgb(27,103,133)" />
	<polygon points="570 312,555 338,525 338,510 312,525 286,555 286" fill="rgb(26,103,133)" />
	<polygon points="570 364,555 390,525 390,510 364,525 338,555 338" fill="rgb(26,103,133)" />
	<polygon points="570 416,555 442,525 442,510 416,525 390,555 390" fill="rgb(27,103,133)" />
	<polygon points="570 468,555 494,525 494,510 468,525 442,555 442" fill="rgb(27,103,133)" />
	<polygon points="570 520,555 546,525 546,510 520,525 494,555 494" fill="rgb(27,104,134)" />
	<polygon points="615 -26,600 0,570 0,555 -26,570 -52,600 -52" fill="rgb(209,106,124)" />
	<polygon points="615 26,600 52,570 52,555 26,570 0,600 0" fill="rgb(161,93,128)" />
	<polygon points="615 78,600 104,570 104,555 78,570 52,600 52" fill="rgb(87,92,132)" />
	<polygon points="615 130,600 156,570 156,555 130,570 104,600 104" fill="rgb(131,88,130)" />
	<polygon points="615 182,600 208,570 208,555 182,570 156,600 156" fill="rgb(68,95,133)" />
	<polygon points="615 234,600 260,570 260,555 234,570 208,600 208" fill="rgb(27,103,133)" />
	<polygon points="615 286,600 312,570 312,555 286,570 260,600 260" fill="rgb(27,103,133)" />
	<polygon points="615 338,600 364,570 364,555 338,570 312,600 312" fill="rgb(26,103,133)" />
	<polygon points="615 390,600 416,570 416,555 390,570 364,600 364" fill="rgb(26,103,133)" />
	<polygon points="615 442,600 468,570 468,555 442,570 416,600 416" fill="rgb(26,103,133)" />
	<polygon points="615 494,600 520,570 520,555 494,570 468,600 468" fill="rgb(27,103,133)" />
	<polygon points="660 0,645 26,615 26,600 0,615 -26,645 -26" fill="rgb(147,93,129)" />
	<polygon points="660 52,645 78,615 78,600 52,615 26,645 26" fill="rgb(94,95,131)" />
	<polygon points="660 104,645 130,615 130,600 104,615 78,645 78" fill="rgb(55,97,132)" />
	<polygon points="660 156,645 182,615 182,600 156,615 130,645 130" fill="rgb(73,93,133)" />
	<polygon points="660 208,645 234,615 234,600 208,615 182,645 182" fill="rgb(31,102,133)" />
	<polygon points="660 260,645 286,615 286,600 260,615 234,645 234" fill="rgb(26,102,133)" />
	<polygon points="660 312,645 338,615 338,600 312,615 286,645 286" fill="rgb(26,102,133)" />
	<polygon points="660 364,645 390,615 390,600 364,615 338,645 338" fill="rgb(26,103,133)" />
	<polygon points="660 416,645 442,615 442,600 416,615 390,645 390" fill="rgb(26,103,133)" />
	<polygon points="660 468,645 494,615 494,600 468,615 442,645 442" fill="rgb(26,103,133)" />
	<polygon points="660 520,645 546,615 546,600 520,615 494,645 494" fill="rgb(27,103,133)" />
	<polygon points="705 -26,690 0,660 0,645 -26,660 -52,690 -52" fill="rgb(115,86,134)" />
	<polygon points="705 26,690 52,660 52,645 26,660 0,690 0" fill="rgb(123,87,132)" />
	<polygon points="705 78,690 104,660 104,645 78,660 52,690 52" fill="rgb(98,93,131)" />
	<polygon points="705 130,690 156,660 156,645 130,660 104,690 104" fill="rgb(35,101,132)" />
	<polygon points="705 182,690 208,660 208,645 182,660 156,690 156" fill="rgb(27,102,133)" />
	<polygon points="705 234,690 260,660 260,645 234,660 208,690 208" fill="rgb(27,102,132)" />
	<polygon points="705 286,690 312,660 312,645 286,660 260,690 260" fill="rgb(29,102,132)" />
	<polygon points="705 338,690 364,660 364,645 338,660 312,690 312" fill="rgb(26,102,133)" />
	<polygon points="705 390,690 416,660 416,645 390,660 364,690 364" fill="rgb(26,102,133)" />
	<polygon points="705 442,690 468,660 468,645 442,660 416,690 416" fill="rgb(26,103,133)" />
	<polygon points="705 494,690 520,660 520,645 494,660 468,690 468" fill="rgb(26,103,133)" />
	<polygon points="750 0,735 26,705 26,690 0,705 -26,735 -26" fill="rgb(115,85,134)" />
	<polygon points="750 52,735 78,705 78,690 52,705 26,735 26" fill="rgb(92,90,133)" />
	<polygon points="750 104,735 130,705 130,690 104,705 78,735 78" fill="rgb(45,99,133)" />
	<polygon points="750 156,735 182,705 182,690 156,705 130,735 130" fill="rgb(26,103,133)" />
	<polygon points="750 208,735 234,705 234,690 208,705 182,735 182" fill="rgb(26,103,133)" />
	<polygon points="750 260,735 286,705 286,690 260,705 234,735 234" fill="rgb(26,102,133)" />
	<polygon points="750 312,735 338,705 338,690 312,705 286,735 286" fill="rgb(26,103,133)" />
	<polygon points="750 364,735 390,705 390,690 364,705 338,735 338" fill="rgb(27,103,133)" />
	<polygon points="750 416,735 442,705 442,690 416,705 390,735 390" fill="rgb(26,103,133)" />
	<polygon points="750 468,735 494,705 494,690 468,705 442,735 442" fill="rgb(27,104,134)" />
	<polygon points="750 520,735 546,705 546,690 520,705 494,735 494" fill="rgb(26,102,133)" />
	<polygon points="795 -26,780 0,750 0,735 -26,750 -52,780 -52" fill="rgb(103,91,134)" />
	<polygon points="795 26,780 52,750 52,735 26,750 0,780 0" fill="rgb(89,91,133)" />
	<polygon points="795 78,780 104,750 104,735 78,750 52,780 52" fill="rgb(44,99,132)" />
	<polygon points="795 130,780 156,750 156,735 130,750 104,780 104" fill="rgb(27,103,133)" />
	<polygon points="795 182,780 208,750 208,735 182,750 156,780 156" fill="rgb(26,103,133)" />
	<polygon points="795 234,780 260,750 260,735 234,750 208,780 208" fill="rgb(26,102,133)" />
	<polygon points="795 286,780 312,750 312,735 286,750 260,780 260" fill="rgb(26,103,133)" />
	<polygon points="795 338,780 364,750 364,735 338,750 312,780 312" fill="rgb(26,103,133)" />
	<polygon points="795 390,780 416,750 416,735 390,750 364,780 364" fill="rgb(27,103,133)" />
	<polygon points="795 442,780 468,750 468,735 442,750 416,780 416" fill="rgb(26,103,133)" />
	<polygon points="795 494,780 520,750 520,735 494,750 468,780 468" fill="rgb(27,104,134)" />
	<polygon points="840 0,825 26,795 26,780 0,795 -26,825 -26" fill="rgb(42,99,133)" />
	<polygon points="840 52,825 78,795 78,780 52,795 26,825 26" fill="rgb(34,101,133)" />
	<polygon points="840 104,825 130,795 130,780 104,795 78,825 78" fill="rgb(27,103,133)" />
	<polygon points="840 156,825 182,795 182,780 156,795 130,825 130" fill="rgb(26,103,133)" />
	<polygon points="840 208,825 234,795 234,780 208,795 182,825 182" fill="rgb(26,103,133)" />
	<polygon points="840 260,825 286,795 286,780 260,795 234,825 234" fill="rgb(26,103,133)" />
	<polygon points="840 312,825 338,795 338,780 312,795 286,825 286" fill="rgb(28,103,133)" />
	<polygon points="840 364,825 390,795 390,780 364,795 338,825 338" fill="rgb(26,103,133)" />
	<polygon points="840 416,825 442,795 442,780 416,795 390,825 390" fill="rgb(26,102,133)" />
	<polygon points="840 468,825 494,795 494,780 468,795 442,825 442" fill="rgb(26,103,133)" />
	<polygon points="840 520,825 546,795 546,780 520,795 494,825 494" fill="rgb(26,103,133)" />
	<polygon points="885 -26,870 0,840 0,825 -26,840 -52,870 -52" fill="rgb(27,102,133)" />
	<polygon points="885 26,870 52,840 52,825 26,840 0,870 0" fill="rgb(27,102,133)" />
	<polygon points="885 78,870 104,840 104,825 78,840 52,870 52" fill="rgb(26,103,133)" />
	<polygon points="885 130,870 156,840 156,825 130,840 104,870 104" fill="rgb(26,103,133)" />
	<polygon points="885 182,870 208,840 208,825 182,840 156,870 156" fill="rgb(26,103,133)" />
	<polygon points="885 234,870 260,840 260,825 234,840 208,870 208" fill="rgb(26,103,133)" />
	<polygon points="885 286,870 312,840 312,825 286,840 260,870 260" fill="rgb(26,103,133)" />
	<polygon points="885 338,870 364,840 364,825 338,840 312,870 312" fill="rgb(26,103,133)" />
	<polygon points="885 390,870 416,840 416,825 390,840 364,870 364" fill="rgb(26,102,133)" />
	<polygon points="885 442,870 468,840 468,825 442,840 416,870 416" fill="rgb(27,102,133)" />
	<polygon points="885 494,870 520,840 520,825 494,840 468,870 468" fill="rgb(27,102,132)" />
	<polygon points="930 0,915 26,885 26,870 0,885 -26,915 -26" fill="rgb(27,103,132)" />
	<polygon points="930 52,915 78,885 78,870 52,885 26,915 26" fill="rgb(26,103,133)" />
	<polygon points="930 104,915 130,885 130,870 104,885 78,915 78" fill="rgb(26,103,133)" />
	<polygon points="930 156,915 182,885 182,870 156,885 130,915 130" fill="rgb(26,103,133)" />
	<polygon points="930 208,915 234,885 234,870 208,885 182,915 182" fill="rgb(26,103,133)" />
	<polygon points="930 260,915 286,885 286,870 260,885 234,915 234" fill="rgb(26,102,133)" />
	<polygon points="930 312,915 338,885 338,870 312,885 286,915 286" fill="rgb(26,102,133)" />
	<polygon points="930 364,915 390,885 390,870 364,885 338,915 338" fill="rgb(26,102,132)" />
	<polygon points="930 416,915 442,885 442,870 416,885 390,915 390" fill="rgb(26,102,133)" />
	<polygon points="930 468,915 494,885 494,870 468,885 442,915 442" fill="rgb(27,103,133)" />
	<polygon points="930 520,915 546,885 546,870 520,885 494,915 494" fill="rgb(27,102,132)" />
</svg>